<?xml version="1.0" encoding="UTF-8" standalone="no"?>
<svg
   xmlns:dc="http://purl.org/dc/elements/1.1/"
   xmlns:cc="http://creativecommons.org/ns#"
   xmlns:rdf="http://www.w3.org/1999/02/22-rdf-syntax-ns#"
   xmlns:svg="http://www.w3.org/2000/svg"
   xmlns="http://www.w3.org/2000/svg"
   xmlns:sodipodi="http://sodipodi.sourceforge.net/DTD/sodipodi-0.dtd"
   xmlns:inkscape="http://www.inkscape.org/namespaces/inkscape"
   width="78.431641mm"
   height="78.429688mm"
   viewBox="0 0 78.431641 78.429688"
   version="1.1"
   id="svg1810"
   inkscape:version="1.0.1 (3bc2e813f5, 2020-09-07)"
   sodipodi:docname="A10.svg">
  <style
     id="style2373"></style>
  <defs
     id="defs1804" />
  <sodipodi:namedview
     id="base"
     pagecolor="#ffffff"
     bordercolor="#666666"
     borderopacity="1.0"
     inkscape:pageopacity="0.0"
     inkscape:pageshadow="2"
     inkscape:zoom="0.35"
     inkscape:cx="116.7887"
     inkscape:cy="462.4993"
     inkscape:document-units="mm"
     inkscape:current-layer="layer1"
     inkscape:document-rotation="0"
     showgrid="false"
     fit-margin-top="0"
     fit-margin-left="0"
     fit-margin-right="0"
     fit-margin-bottom="0"
     inkscape:window-width="1647"
     inkscape:window-height="977"
     inkscape:window-x="2720"
     inkscape:window-y="320"
     inkscape:window-maximized="0" />
  <metadata
     id="metadata1807">
    <rdf:RDF>
      <cc:Work
         rdf:about="">
        <dc:format>image/svg+xml</dc:format>
        <dc:type
           rdf:resource="http://purl.org/dc/dcmitype/StillImage" />
        <dc:title></dc:title>
      </cc:Work>
    </rdf:RDF>
  </metadata>
  <g
     inkscape:label="Calque 1"
     inkscape:groupmode="layer"
     id="layer1"
     transform="translate(-74.93299,-25.797061)">
    <g
       id="g1192"
       transform="translate(283.17518,-69.966611)">
      <g
         id="g1179"
         style="fill:#1a1a1a">
        <path
           style="color:#000000;font-style:normal;font-variant:normal;font-weight:normal;font-stretch:normal;font-size:medium;line-height:normal;font-family:sans-serif;font-variant-ligatures:normal;font-variant-position:normal;font-variant-caps:normal;font-variant-numeric:normal;font-variant-alternates:normal;font-variant-east-asian:normal;font-feature-settings:normal;font-variation-settings:normal;text-indent:0;text-align:start;text-decoration:none;text-decoration-line:none;text-decoration-style:solid;text-decoration-color:#000000;letter-spacing:normal;word-spacing:normal;text-transform:none;writing-mode:lr-tb;direction:ltr;text-orientation:mixed;dominant-baseline:auto;baseline-shift:baseline;text-anchor:start;white-space:normal;shape-padding:0;shape-margin:0;inline-size:0;clip-rule:nonzero;display:inline;overflow:visible;visibility:visible;opacity:1;isolation:auto;mix-blend-mode:normal;color-interpolation:sRGB;color-interpolation-filters:linearRGB;solid-color:#000000;solid-opacity:1;vector-effect:none;fill:#1a1a1a;fill-opacity:1;fill-rule:nonzero;stroke:none;stroke-width:0.5;stroke-linecap:round;stroke-linejoin:miter;stroke-miterlimit:4;stroke-dasharray:none;stroke-dashoffset:0;stroke-opacity:1;color-rendering:auto;image-rendering:auto;shape-rendering:auto;text-rendering:auto;enable-background:accumulate;stop-color:#000000;stop-opacity:1"
           d="m -169.02539,95.763672 c -21.65501,-10e-7 -39.2168,17.559828 -39.2168,39.214848 0,21.65501 17.56179,39.21484 39.2168,39.21484 21.65501,-1e-5 39.21484,-17.55984 39.21484,-39.21484 0,-21.65501 -17.55983,-39.214843 -39.21484,-39.214848 z m 0,0.5 c 21.38479,5e-6 38.71484,17.330058 38.71484,38.714848 0,21.38478 -17.33005,38.71483 -38.71484,38.71484 -21.38479,0 -38.7168,-17.33005 -38.7168,-38.71484 0,-21.3848 17.33201,-38.714849 38.7168,-38.714848 z"
           id="path1077" />
        <path
           style="color:#000000;font-style:normal;font-variant:normal;font-weight:normal;font-stretch:normal;font-size:medium;line-height:normal;font-family:sans-serif;font-variant-ligatures:normal;font-variant-position:normal;font-variant-caps:normal;font-variant-numeric:normal;font-variant-alternates:normal;font-variant-east-asian:normal;font-feature-settings:normal;font-variation-settings:normal;text-indent:0;text-align:start;text-decoration:none;text-decoration-line:none;text-decoration-style:solid;text-decoration-color:#000000;letter-spacing:normal;word-spacing:normal;text-transform:none;writing-mode:lr-tb;direction:ltr;text-orientation:mixed;dominant-baseline:auto;baseline-shift:baseline;text-anchor:start;white-space:normal;shape-padding:0;shape-margin:0;inline-size:0;clip-rule:nonzero;display:inline;overflow:visible;visibility:visible;opacity:1;isolation:auto;mix-blend-mode:normal;color-interpolation:sRGB;color-interpolation-filters:linearRGB;solid-color:#000000;solid-opacity:1;vector-effect:none;fill:#1a1a1a;fill-opacity:1;fill-rule:nonzero;stroke:none;stroke-width:0.5;stroke-linecap:round;stroke-linejoin:miter;stroke-miterlimit:4;stroke-dasharray:none;stroke-dashoffset:0;stroke-opacity:1;color-rendering:auto;image-rendering:auto;shape-rendering:auto;text-rendering:auto;enable-background:accumulate;stop-color:#000000;stop-opacity:1"
           d="m -169.02539,103.50977 c -17.37698,0 -31.4707,14.09176 -31.4707,31.46875 0,17.37698 14.09372,31.46875 31.4707,31.46875 17.37698,0 31.46875,-14.09177 31.46875,-31.46875 0,-17.37699 -14.09177,-31.46875 -31.46875,-31.46875 z m 0,0.5 c 17.10676,0 30.96875,13.86198 30.96875,30.96875 0,17.10676 -13.86199,30.96875 -30.96875,30.96875 -17.10676,0 -30.9707,-13.86199 -30.9707,-30.96875 0,-17.10677 13.86394,-30.96875 30.9707,-30.96875 z"
           id="path1085" />
        <path
           style="color:#000000;font-style:normal;font-variant:normal;font-weight:normal;font-stretch:normal;font-size:medium;line-height:normal;font-family:sans-serif;font-variant-ligatures:normal;font-variant-position:normal;font-variant-caps:normal;font-variant-numeric:normal;font-variant-alternates:normal;font-variant-east-asian:normal;font-feature-settings:normal;font-variation-settings:normal;text-indent:0;text-align:start;text-decoration:none;text-decoration-line:none;text-decoration-style:solid;text-decoration-color:#000000;letter-spacing:normal;word-spacing:normal;text-transform:none;writing-mode:lr-tb;direction:ltr;text-orientation:mixed;dominant-baseline:auto;baseline-shift:baseline;text-anchor:start;white-space:normal;shape-padding:0;shape-margin:0;inline-size:0;clip-rule:nonzero;display:inline;overflow:visible;visibility:visible;opacity:1;isolation:auto;mix-blend-mode:normal;color-interpolation:sRGB;color-interpolation-filters:linearRGB;solid-color:#000000;solid-opacity:1;vector-effect:none;fill:#1a1a1a;fill-opacity:1;fill-rule:nonzero;stroke:none;stroke-width:0.5;stroke-linecap:round;stroke-linejoin:miter;stroke-miterlimit:4;stroke-dasharray:none;stroke-dashoffset:0;stroke-opacity:1;color-rendering:auto;image-rendering:auto;shape-rendering:auto;text-rendering:auto;enable-background:accumulate;stop-color:#000000;stop-opacity:1"
           d="m -169.02539,99.636719 c -19.51573,-10e-7 -35.3418,15.826071 -35.3418,35.341801 0,19.51572 15.82607,35.34179 35.3418,35.34179 19.51573,0 35.3418,-15.82607 35.3418,-35.34179 -1e-5,-19.51573 -15.82608,-35.341802 -35.3418,-35.341801 z m 0,0.500001 c 19.2455,0 34.84179,15.59629 34.8418,34.8418 0,19.2455 -15.59629,34.84179 -34.8418,34.84179 -19.24551,0 -34.8418,-15.59629 -34.8418,-34.84179 0,-19.24551 15.59629,-34.8418 34.8418,-34.8418 z"
           id="path1081" />
        <path
           style="color:#000000;font-style:normal;font-variant:normal;font-weight:normal;font-stretch:normal;font-size:medium;line-height:normal;font-family:sans-serif;font-variant-ligatures:normal;font-variant-position:normal;font-variant-caps:normal;font-variant-numeric:normal;font-variant-alternates:normal;font-variant-east-asian:normal;font-feature-settings:normal;font-variation-settings:normal;text-indent:0;text-align:start;text-decoration:none;text-decoration-line:none;text-decoration-style:solid;text-decoration-color:#000000;letter-spacing:normal;word-spacing:normal;text-transform:none;writing-mode:lr-tb;direction:ltr;text-orientation:mixed;dominant-baseline:auto;baseline-shift:baseline;text-anchor:start;white-space:normal;shape-padding:0;shape-margin:0;inline-size:0;clip-rule:nonzero;display:inline;overflow:visible;visibility:visible;opacity:1;isolation:auto;mix-blend-mode:normal;color-interpolation:sRGB;color-interpolation-filters:linearRGB;solid-color:#000000;solid-opacity:1;vector-effect:none;fill:#1a1a1a;fill-opacity:1;fill-rule:nonzero;stroke:none;stroke-width:0.5;stroke-linecap:round;stroke-linejoin:miter;stroke-miterlimit:4;stroke-dasharray:none;stroke-dashoffset:0;stroke-opacity:1;color-rendering:auto;image-rendering:auto;shape-rendering:auto;text-rendering:auto;enable-background:accumulate;stop-color:#000000;stop-opacity:1"
           d="m -169.02539,107.40039 c -15.2284,0 -27.58008,12.34972 -27.58008,27.57813 0,15.2284 12.35168,27.57812 27.58008,27.57812 15.2284,0 27.57812,-12.34972 27.57812,-27.57812 0,-15.22841 -12.34972,-27.57813 -27.57812,-27.57813 z m 0,0.5 c 14.95818,0 27.07812,12.11994 27.07812,27.07813 0,14.95818 -12.11994,27.07812 -27.07812,27.07812 -14.95818,0 -27.08008,-12.11994 -27.08008,-27.07812 0,-14.95819 12.1219,-27.07813 27.08008,-27.07813 z"
           id="path1089" />
        <path
           id="path1013-9"
           style="color:#000000;font-style:normal;font-variant:normal;font-weight:normal;font-stretch:normal;font-size:medium;line-height:normal;font-family:sans-serif;font-variant-ligatures:normal;font-variant-position:normal;font-variant-caps:normal;font-variant-numeric:normal;font-variant-alternates:normal;font-variant-east-asian:normal;font-feature-settings:normal;font-variation-settings:normal;text-indent:0;text-align:start;text-decoration:none;text-decoration-line:none;text-decoration-style:solid;text-decoration-color:#000000;letter-spacing:normal;word-spacing:normal;text-transform:none;writing-mode:lr-tb;direction:ltr;text-orientation:mixed;dominant-baseline:auto;baseline-shift:baseline;text-anchor:start;white-space:normal;shape-padding:0;shape-margin:0;inline-size:0;clip-rule:nonzero;display:inline;overflow:visible;visibility:visible;isolation:auto;mix-blend-mode:normal;color-interpolation:sRGB;color-interpolation-filters:linearRGB;solid-color:#000000;solid-opacity:1;vector-effect:none;fill:#1a1a1a;fill-opacity:1;fill-rule:nonzero;stroke:none;stroke-width:0.499999;stroke-linecap:round;stroke-linejoin:miter;stroke-miterlimit:4;stroke-dasharray:none;stroke-dashoffset:0;stroke-opacity:1;color-rendering:auto;image-rendering:auto;shape-rendering:auto;text-rendering:auto;enable-background:accumulate;stop-color:#000000"
           d="m -169.02559,111.38383 c -13.02806,0 -23.59546,10.56585 -23.59546,23.5939 0,13.02804 10.56741,23.59546 23.59546,23.59546 13.02804,0 23.5939,-10.56742 23.5939,-23.59546 0,-13.02805 -10.56586,-23.5939 -23.5939,-23.5939 z m 0,3.80958 c 10.92392,0 19.78328,8.86142 19.78328,19.78536 0,10.92393 -8.85936,19.78484 -19.78328,19.78484 -10.92394,1e-5 -19.78485,-8.86091 -19.78485,-19.78484 0,-10.92394 8.86091,-19.78537 19.78485,-19.78536 z m 0,0.49971 c -10.65373,-10e-6 -19.28513,8.63193 -19.28513,19.28565 0,10.65371 8.6314,19.28513 19.28513,19.28513 10.6537,0 19.28357,-8.63142 19.28357,-19.28513 0,-10.65372 -8.62987,-19.28565 -19.28357,-19.28565 z m 5.1e-4,3.44992 c 8.74237,0 15.83366,7.09181 15.83366,15.83418 0,8.74237 -7.09129,15.83572 -15.83366,15.83572 -8.74236,0 -15.83624,-7.09335 -15.83624,-15.83572 0,-8.74237 7.09388,-15.83418 15.83624,-15.83418 z m 0,0.50023 c -8.47214,0 -15.33601,6.86181 -15.33601,15.33395 0,8.47216 6.86387,15.33601 15.33601,15.33601 8.47215,0 15.33395,-6.86385 15.33395,-15.33601 0,-8.47214 -6.8618,-15.33395 -15.33395,-15.33395 z m -5.1e-4,3.38429 c 6.59793,0 11.9512,5.35327 11.9512,11.95121 0,6.59792 -5.35327,11.95069 -11.9512,11.95069 -6.59795,0 -11.95276,-5.35277 -11.95276,-11.95069 0,-6.59794 5.35481,-11.95121 11.95276,-11.95121 z m 0,0.49971 c -6.32772,0 -11.45305,5.12378 -11.45305,11.4515 0,6.32771 5.12533,11.45098 11.45305,11.45098 6.3277,0 11.45149,-5.12327 11.45149,-11.45098 0,-6.32772 -5.12379,-11.4515 -11.45149,-11.4515 z m 0,3.39359 c 4.44707,0 8.05687,3.6098 8.05687,8.05687 0,4.44708 -3.6098,8.05843 -8.05687,8.05843 -4.44708,0 -8.05843,-3.61135 -8.05843,-8.05843 0,-4.44707 3.61135,-8.05687 8.05843,-8.05687 z m 0,0.50023 c -4.17687,0 -7.55872,3.37978 -7.55872,7.55664 0,4.17687 3.38185,7.55872 7.55872,7.55872 4.17686,0 7.55664,-3.38185 7.55664,-7.55872 0,-4.17686 -3.37978,-7.55664 -7.55664,-7.55664 z m 0,3.40909 c 2.28843,0 4.14858,1.86015 4.14858,4.14859 0,2.28843 -1.86015,4.14807 -4.14858,4.14807 -2.28845,1e-5 -4.15014,-1.85964 -4.15014,-4.14807 0,-2.28845 1.86169,-4.1486 4.15014,-4.14859 z m 0,0.49972 c -2.01823,-2e-5 -3.65043,1.63064 -3.65043,3.64887 0,2.01821 1.6322,3.64837 3.65043,3.64835 2.01822,0 3.64835,-1.63014 3.64835,-3.64835 0,-2.01822 -1.63013,-3.64887 -3.64835,-3.64887 z" />
      </g>
    </g>
  </g>
</svg>
