<?xml version="1.0" encoding="UTF-8" standalone="no"?>
<svg
   xmlns:dc="http://purl.org/dc/elements/1.1/"
   xmlns:cc="http://creativecommons.org/ns#"
   xmlns:rdf="http://www.w3.org/1999/02/22-rdf-syntax-ns#"
   xmlns:svg="http://www.w3.org/2000/svg"
   xmlns="http://www.w3.org/2000/svg"
   xmlns:sodipodi="http://sodipodi.sourceforge.net/DTD/sodipodi-0.dtd"
   xmlns:inkscape="http://www.inkscape.org/namespaces/inkscape"
   width="78.429695mm"
   height="78.431641mm"
   viewBox="0 0 78.429695 78.431641"
   version="1.1"
   id="svg1212"
   inkscape:version="1.0.1 (3bc2e813f5, 2020-09-07)"
   sodipodi:docname="A5.svg">
  <style
     id="style1775"></style>
  <defs
     id="defs1206" />
  <sodipodi:namedview
     id="base"
     pagecolor="#ffffff"
     bordercolor="#666666"
     borderopacity="1.0"
     inkscape:pageopacity="0.0"
     inkscape:pageshadow="2"
     inkscape:zoom="0.35"
     inkscape:cx="-51.786394"
     inkscape:cy="333.93157"
     inkscape:document-units="mm"
     inkscape:current-layer="layer1"
     inkscape:document-rotation="0"
     showgrid="false"
     fit-margin-top="0"
     fit-margin-left="0"
     fit-margin-right="0"
     fit-margin-bottom="0"
     inkscape:window-width="1647"
     inkscape:window-height="977"
     inkscape:window-x="2656"
     inkscape:window-y="256"
     inkscape:window-maximized="0" />
  <metadata
     id="metadata1209">
    <rdf:RDF>
      <cc:Work
         rdf:about="">
        <dc:format>image/svg+xml</dc:format>
        <dc:type
           rdf:resource="http://purl.org/dc/dcmitype/StillImage" />
        <dc:title />
      </cc:Work>
    </rdf:RDF>
  </metadata>
  <g
     inkscape:label="Calque 1"
     inkscape:groupmode="layer"
     id="layer1"
     transform="translate(-119.53515,-59.81394)">
    <path
       style="color:#000000;font-style:normal;font-variant:normal;font-weight:normal;font-stretch:normal;font-size:medium;line-height:normal;font-family:sans-serif;font-variant-ligatures:normal;font-variant-position:normal;font-variant-caps:normal;font-variant-numeric:normal;font-variant-alternates:normal;font-variant-east-asian:normal;font-feature-settings:normal;font-variation-settings:normal;text-indent:0;text-align:start;text-decoration:none;text-decoration-line:none;text-decoration-style:solid;text-decoration-color:#000000;letter-spacing:normal;word-spacing:normal;text-transform:none;writing-mode:lr-tb;direction:ltr;text-orientation:mixed;dominant-baseline:auto;baseline-shift:baseline;text-anchor:start;white-space:normal;shape-padding:0;shape-margin:0;inline-size:0;clip-rule:nonzero;display:inline;overflow:visible;visibility:visible;isolation:auto;mix-blend-mode:normal;color-interpolation:sRGB;color-interpolation-filters:linearRGB;solid-color:#000000;solid-opacity:1;vector-effect:none;fill:#616163;fill-opacity:1;fill-rule:nonzero;stroke:none;stroke-width:0.499999;stroke-linecap:round;stroke-linejoin:miter;stroke-miterlimit:4;stroke-dasharray:none;stroke-dashoffset:0;stroke-opacity:1;color-rendering:auto;image-rendering:auto;shape-rendering:auto;text-rendering:auto;enable-background:accumulate;stop-color:#000000"
       d="m 158.75,59.81394 c -21.65501,-3e-6 -39.21484,17.559833 -39.21485,39.214843 0,21.655007 17.55983,39.216797 39.21485,39.216797 21.65501,0 39.21484,-17.56179 39.21484,-39.216797 0,-21.65501 -17.55983,-39.214843 -39.21484,-39.214843 z m 0,0.5 c 21.38479,0 38.71484,17.330053 38.71484,38.714843 0,21.384787 -17.33005,38.716797 -38.71484,38.716797 -21.3848,0 -38.71485,-17.33201 -38.71485,-38.716797 1e-5,-21.38479 17.33006,-38.714846 38.71485,-38.714843 z"
       id="path954" />
    <path
       style="color:#000000;font-style:normal;font-variant:normal;font-weight:normal;font-stretch:normal;font-size:medium;line-height:normal;font-family:sans-serif;font-variant-ligatures:normal;font-variant-position:normal;font-variant-caps:normal;font-variant-numeric:normal;font-variant-alternates:normal;font-variant-east-asian:normal;font-feature-settings:normal;font-variation-settings:normal;text-indent:0;text-align:start;text-decoration:none;text-decoration-line:none;text-decoration-style:solid;text-decoration-color:#000000;letter-spacing:normal;word-spacing:normal;text-transform:none;writing-mode:lr-tb;direction:ltr;text-orientation:mixed;dominant-baseline:auto;baseline-shift:baseline;text-anchor:start;white-space:normal;shape-padding:0;shape-margin:0;inline-size:0;clip-rule:nonzero;display:inline;overflow:visible;visibility:visible;isolation:auto;mix-blend-mode:normal;color-interpolation:sRGB;color-interpolation-filters:linearRGB;solid-color:#000000;solid-opacity:1;vector-effect:none;fill:#616163;fill-opacity:1;fill-rule:nonzero;stroke:none;stroke-width:0.499999;stroke-linecap:round;stroke-linejoin:miter;stroke-miterlimit:4;stroke-dasharray:none;stroke-dashoffset:0;stroke-opacity:1;color-rendering:auto;image-rendering:auto;shape-rendering:auto;text-rendering:auto;enable-background:accumulate;stop-color:#000000"
       d="m 158.75,67.560033 c -17.37698,0 -31.46875,14.09177 -31.46875,31.46875 0,17.376977 14.09177,31.470707 31.46875,31.470697 17.37698,0 31.46875,-14.09372 31.46875,-31.470697 0,-17.37698 -14.09177,-31.46875 -31.46875,-31.46875 z m 0,0.5 c 17.10676,0 30.96875,13.86199 30.96875,30.96875 0,17.106757 -13.86199,30.970697 -30.96875,30.970697 -17.10677,1e-5 -30.96875,-13.86394 -30.96875,-30.970697 0,-17.10676 13.86198,-30.96875 30.96875,-30.96875 z"
       id="path958" />
    <path
       id="path1013"
       style="color:#000000;font-style:normal;font-variant:normal;font-weight:normal;font-stretch:normal;font-size:medium;line-height:normal;font-family:sans-serif;font-variant-ligatures:normal;font-variant-position:normal;font-variant-caps:normal;font-variant-numeric:normal;font-variant-alternates:normal;font-variant-east-asian:normal;font-feature-settings:normal;font-variation-settings:normal;text-indent:0;text-align:start;text-decoration:none;text-decoration-line:none;text-decoration-style:solid;text-decoration-color:#000000;letter-spacing:normal;word-spacing:normal;text-transform:none;writing-mode:lr-tb;direction:ltr;text-orientation:mixed;dominant-baseline:auto;baseline-shift:baseline;text-anchor:start;white-space:normal;shape-padding:0;shape-margin:0;inline-size:0;clip-rule:nonzero;display:inline;overflow:visible;visibility:visible;isolation:auto;mix-blend-mode:normal;color-interpolation:sRGB;color-interpolation-filters:linearRGB;solid-color:#000000;solid-opacity:1;vector-effect:none;fill:#616163;fill-opacity:1;fill-rule:nonzero;stroke:none;stroke-width:0.499999;stroke-linecap:round;stroke-linejoin:miter;stroke-miterlimit:4;stroke-dasharray:none;stroke-dashoffset:0;stroke-opacity:1;color-rendering:auto;image-rendering:auto;shape-rendering:auto;text-rendering:auto;enable-background:accumulate;stop-color:#000000"
       d="m 158.75077,75.435073 c -13.02804,0 -23.59545,10.56586 -23.59545,23.59391 0,13.028037 10.56741,23.595457 23.59545,23.595457 13.02805,0 23.59391,-10.56742 23.59391,-23.595457 1e-5,-13.02805 -10.56586,-23.59391 -23.59391,-23.59391 z m 5.2e-4,7.75922 c 8.74237,0 15.83366,7.0918 15.83366,15.83417 0,8.742367 -7.09129,15.835727 -15.83366,15.835727 -8.74236,0 -15.83624,-7.09336 -15.83624,-15.835727 0,-8.74237 7.09388,-15.83417 15.83624,-15.83417 z m 0,0.50023 c -8.47214,0 -15.33601,6.8618 -15.33601,15.33394 0,8.472157 6.86386,15.336017 15.33601,15.336017 8.47215,0 15.33395,-6.86386 15.33395,-15.336017 0,-8.47214 -6.8618,-15.33394 -15.33395,-15.33394 z m -5.2e-4,7.27759 c 4.44708,0 8.05688,3.60979 8.05688,8.05687 0,4.447077 -3.6098,8.058417 -8.05688,8.058417 -4.44708,0 -8.05842,-3.61134 -8.05842,-8.058417 0,-4.44708 3.61134,-8.05687 8.05842,-8.05687 z m 0,0.50022 c -4.17685,0 -7.5587,3.37979 -7.55871,7.55665 1e-5,4.176857 3.38186,7.558707 7.55871,7.558707 4.17686,0 7.55665,-3.38185 7.55665,-7.558707 0,-4.17686 -3.37979,-7.55665 -7.55665,-7.55665 z" />
  </g>
</svg>
