<?xml version="1.0" encoding="UTF-8" standalone="no"?>
<svg
   xmlns:dc="http://purl.org/dc/elements/1.1/"
   xmlns:cc="http://creativecommons.org/ns#"
   xmlns:rdf="http://www.w3.org/1999/02/22-rdf-syntax-ns#"
   xmlns:svg="http://www.w3.org/2000/svg"
   xmlns="http://www.w3.org/2000/svg"
   xmlns:sodipodi="http://sodipodi.sourceforge.net/DTD/sodipodi-0.dtd"
   xmlns:inkscape="http://www.inkscape.org/namespaces/inkscape"
   width="78.429695mm"
   height="78.431641mm"
   viewBox="0 0 78.429695 78.431641"
   version="1.1"
   id="svg1212"
   inkscape:version="1.0.1 (3bc2e813f5, 2020-09-07)"
   sodipodi:docname="A5.svg">
  <style
     id="style1775"></style>
  <defs
     id="defs1206" />
  <sodipodi:namedview
     id="base"
     pagecolor="#ffffff"
     bordercolor="#666666"
     borderopacity="1.0"
     inkscape:pageopacity="0.0"
     inkscape:pageshadow="2"
     inkscape:zoom="0.35"
     inkscape:cx="-51.786394"
     inkscape:cy="333.93157"
     inkscape:document-units="mm"
     inkscape:current-layer="layer1"
     inkscape:document-rotation="0"
     showgrid="false"
     fit-margin-top="0"
     fit-margin-left="0"
     fit-margin-right="0"
     fit-margin-bottom="0"
     inkscape:window-width="1647"
     inkscape:window-height="977"
     inkscape:window-x="2656"
     inkscape:window-y="256"
     inkscape:window-maximized="0" />
  <metadata
     id="metadata1209">
    <rdf:RDF>
      <cc:Work
         rdf:about="">
        <dc:format>image/svg+xml</dc:format>
        <dc:type
           rdf:resource="http://purl.org/dc/dcmitype/StillImage" />
        <dc:title></dc:title>
      </cc:Work>
    </rdf:RDF>
  </metadata>
  <g
     inkscape:label="Calque 1"
     inkscape:groupmode="layer"
     id="layer1"
     transform="translate(-119.53515,-59.81394)">
    <g
       id="g1184"
       transform="translate(240.95703,-35.934107)">
      <path
         style="color:#000000;font-style:normal;font-variant:normal;font-weight:normal;font-stretch:normal;font-size:medium;line-height:normal;font-family:sans-serif;font-variant-ligatures:normal;font-variant-position:normal;font-variant-caps:normal;font-variant-numeric:normal;font-variant-alternates:normal;font-variant-east-asian:normal;font-feature-settings:normal;font-variation-settings:normal;text-indent:0;text-align:start;text-decoration:none;text-decoration-line:none;text-decoration-style:solid;text-decoration-color:#000000;letter-spacing:normal;word-spacing:normal;text-transform:none;writing-mode:lr-tb;direction:ltr;text-orientation:mixed;dominant-baseline:auto;baseline-shift:baseline;text-anchor:start;white-space:normal;shape-padding:0;shape-margin:0;inline-size:0;clip-rule:nonzero;display:inline;overflow:visible;visibility:visible;isolation:auto;mix-blend-mode:normal;color-interpolation:sRGB;color-interpolation-filters:linearRGB;solid-color:#000000;solid-opacity:1;vector-effect:none;fill:#1a1a1a;fill-opacity:1;fill-rule:nonzero;stroke:none;stroke-width:0.499999;stroke-linecap:round;stroke-linejoin:miter;stroke-miterlimit:4;stroke-dasharray:none;stroke-dashoffset:0;stroke-opacity:1;color-rendering:auto;image-rendering:auto;shape-rendering:auto;text-rendering:auto;enable-background:accumulate;stop-color:#000000"
         d="m -82.207031,95.748047 c -21.655009,-3e-6 -39.214839,17.559833 -39.214849,39.214843 0,21.65501 17.55983,39.2168 39.214849,39.2168 21.655012,0 39.214844,-17.56179 39.214843,-39.2168 -1e-6,-21.65501 -17.559833,-39.214843 -39.214843,-39.214843 z m 0,0.5 c 21.384791,0 38.714842,17.330053 38.714843,38.714843 10e-7,21.38479 -17.330051,38.7168 -38.714843,38.7168 -21.384799,0 -38.714849,-17.33201 -38.714849,-38.7168 1e-5,-21.38479 17.33006,-38.714846 38.714849,-38.714843 z"
         id="path954" />
      <path
         style="color:#000000;font-style:normal;font-variant:normal;font-weight:normal;font-stretch:normal;font-size:medium;line-height:normal;font-family:sans-serif;font-variant-ligatures:normal;font-variant-position:normal;font-variant-caps:normal;font-variant-numeric:normal;font-variant-alternates:normal;font-variant-east-asian:normal;font-feature-settings:normal;font-variation-settings:normal;text-indent:0;text-align:start;text-decoration:none;text-decoration-line:none;text-decoration-style:solid;text-decoration-color:#000000;letter-spacing:normal;word-spacing:normal;text-transform:none;writing-mode:lr-tb;direction:ltr;text-orientation:mixed;dominant-baseline:auto;baseline-shift:baseline;text-anchor:start;white-space:normal;shape-padding:0;shape-margin:0;inline-size:0;clip-rule:nonzero;display:inline;overflow:visible;visibility:visible;isolation:auto;mix-blend-mode:normal;color-interpolation:sRGB;color-interpolation-filters:linearRGB;solid-color:#000000;solid-opacity:1;vector-effect:none;fill:#1a1a1a;fill-opacity:1;fill-rule:nonzero;stroke:none;stroke-width:0.499999;stroke-linecap:round;stroke-linejoin:miter;stroke-miterlimit:4;stroke-dasharray:none;stroke-dashoffset:0;stroke-opacity:1;color-rendering:auto;image-rendering:auto;shape-rendering:auto;text-rendering:auto;enable-background:accumulate;stop-color:#000000"
         d="m -82.207031,103.49414 c -17.376983,0 -31.468749,14.09177 -31.468749,31.46875 0,17.37698 14.091766,31.47071 31.468749,31.4707 17.376981,0 31.46875,-14.09372 31.46875,-31.4707 0,-17.37698 -14.091769,-31.46875 -31.46875,-31.46875 z m 0,0.5 c 17.106761,0 30.96875,13.86199 30.96875,30.96875 0,17.10676 -13.861989,30.9707 -30.96875,30.9707 -17.106764,1e-5 -30.968749,-13.86394 -30.968749,-30.9707 0,-17.10676 13.861985,-30.96875 30.968749,-30.96875 z"
         id="path958" />
      <path
         id="path1013"
         style="color:#000000;font-style:normal;font-variant:normal;font-weight:normal;font-stretch:normal;font-size:medium;line-height:normal;font-family:sans-serif;font-variant-ligatures:normal;font-variant-position:normal;font-variant-caps:normal;font-variant-numeric:normal;font-variant-alternates:normal;font-variant-east-asian:normal;font-feature-settings:normal;font-variation-settings:normal;text-indent:0;text-align:start;text-decoration:none;text-decoration-line:none;text-decoration-style:solid;text-decoration-color:#000000;letter-spacing:normal;word-spacing:normal;text-transform:none;writing-mode:lr-tb;direction:ltr;text-orientation:mixed;dominant-baseline:auto;baseline-shift:baseline;text-anchor:start;white-space:normal;shape-padding:0;shape-margin:0;inline-size:0;clip-rule:nonzero;display:inline;overflow:visible;visibility:visible;isolation:auto;mix-blend-mode:normal;color-interpolation:sRGB;color-interpolation-filters:linearRGB;solid-color:#000000;solid-opacity:1;vector-effect:none;fill:#1a1a1a;fill-opacity:1;fill-rule:nonzero;stroke:none;stroke-width:0.499999;stroke-linecap:round;stroke-linejoin:miter;stroke-miterlimit:4;stroke-dasharray:none;stroke-dashoffset:0;stroke-opacity:1;color-rendering:auto;image-rendering:auto;shape-rendering:auto;text-rendering:auto;enable-background:accumulate;stop-color:#000000"
         d="m -82.206255,111.36918 c -13.028049,0 -23.595455,10.56586 -23.595455,23.59391 0,13.02804 10.567411,23.59546 23.595455,23.59546 13.028043,0 23.593903,-10.56742 23.593909,-23.59546 2e-6,-13.02805 -10.565863,-23.59391 -23.593909,-23.59391 z m 5.16e-4,7.75922 c 8.74237,0 15.833658,7.0918 15.833658,15.83417 0,8.74237 -7.091288,15.83573 -15.833658,15.83573 -8.742365,0 -15.836241,-7.09336 -15.836241,-15.83573 0,-8.74237 7.093876,-15.83417 15.836241,-15.83417 z m 0,0.50023 c -8.472146,0 -15.336015,6.8618 -15.336015,15.33394 0,8.47216 6.863869,15.33602 15.336015,15.33602 8.472151,0 15.333948,-6.86386 15.333948,-15.33602 0,-8.47214 -6.861797,-15.33394 -15.333948,-15.33394 z m -5.16e-4,7.27759 c 4.447079,0 8.056872,3.60979 8.056872,8.05687 0,4.44708 -3.609793,8.05842 -8.056872,8.05842 -4.44708,0 -8.058423,-3.61134 -8.058423,-8.05842 0,-4.44708 3.611343,-8.05687 8.058423,-8.05687 z m 0,0.50022 c -4.176858,0 -7.558709,3.37979 -7.558712,7.55665 3e-6,4.17686 3.381854,7.55871 7.558712,7.55871 4.176858,0 7.556643,-3.38185 7.556645,-7.55871 -2e-6,-4.17686 -3.379787,-7.55665 -7.556645,-7.55665 z" />
    </g>
  </g>
</svg>
