<?xml version="1.0" encoding="UTF-8" standalone="no"?>
<svg
   xmlns:dc="http://purl.org/dc/elements/1.1/"
   xmlns:cc="http://creativecommons.org/ns#"
   xmlns:rdf="http://www.w3.org/1999/02/22-rdf-syntax-ns#"
   xmlns:svg="http://www.w3.org/2000/svg"
   xmlns="http://www.w3.org/2000/svg"
   xmlns:sodipodi="http://sodipodi.sourceforge.net/DTD/sodipodi-0.dtd"
   xmlns:inkscape="http://www.inkscape.org/namespaces/inkscape"
   width="158.42815mm"
   height="40.771168mm"
   viewBox="0 0 158.42815 40.771168"
   version="1.1"
   id="svg877"
   inkscape:version="1.0.1 (3bc2e813f5, 2020-09-07)"
   sodipodi:docname="Autre.svg">
  <style
     id="style1440"></style>
  <defs
     id="defs871" />
  <sodipodi:namedview
     id="base"
     pagecolor="#ffffff"
     bordercolor="#666666"
     borderopacity="1.0"
     inkscape:pageopacity="0.0"
     inkscape:pageshadow="2"
     inkscape:zoom="0.35"
     inkscape:cx="345.10606"
     inkscape:cy="125.61931"
     inkscape:document-units="mm"
     inkscape:current-layer="layer1"
     inkscape:document-rotation="0"
     showgrid="false"
     fit-margin-top="0"
     fit-margin-left="0"
     fit-margin-right="0"
     fit-margin-bottom="0"
     inkscape:window-width="1647"
     inkscape:window-height="977"
     inkscape:window-x="2688"
     inkscape:window-y="288"
     inkscape:window-maximized="0" />
  <metadata
     id="metadata874">
    <rdf:RDF>
      <cc:Work
         rdf:about="">
        <dc:format>image/svg+xml</dc:format>
        <dc:type
           rdf:resource="http://purl.org/dc/dcmitype/StillImage" />
        <dc:title />
      </cc:Work>
    </rdf:RDF>
  </metadata>
  <g
     inkscape:label="Calque 1"
     inkscape:groupmode="layer"
     id="layer1"
     transform="translate(-14.524021,-114.92989)">
    <path
       d="m 167.90119,115.0231 c -0.22283,0.0435 -0.43328,0.10877 -0.47043,0.14139 -0.0371,0.0326 -0.17331,0.39156 -0.28473,0.80486 -0.1238,0.40243 -0.5571,1.56621 -0.97802,2.58859 -0.40852,1.01151 -0.87897,2.20792 -1.02752,2.65385 -0.21045,0.5547 -0.3714,0.82661 -0.54471,0.881 -0.39615,0.13051 -7.25459,0.28278 -9.16108,0.20665 -1.94363,-0.087 -2.63691,-0.20665 -3.71394,-0.65259 -1.46083,-0.60908 -2.81023,-1.78374 -3.60255,-3.15417 l -0.28473,-0.50031 -4.24629,-0.0761 c -6.78414,-0.11964 -9.18583,-0.25016 -9.86672,-0.51119 -0.30949,-0.11964 -0.59424,-0.26103 -0.64377,-0.32629 -0.0371,-0.0653 -0.2971,-0.15227 -0.55708,-0.20666 -0.82945,-0.17402 -6.53656,-0.32629 -12.67695,-0.35892 l -5.88042,-0.0218 -0.68089,0.40243 c -0.3714,0.2284 -0.7428,0.4133 -0.82945,0.4133 -0.0867,0 -0.1857,-0.22841 -0.22284,-0.52207 -0.1238,-0.79398 -0.17332,-0.87011 -0.59423,-0.98976 -0.22284,-0.0653 -2.46359,-0.17402 -4.97669,-0.23928 -2.5255,-0.0653 -4.91481,-0.11964 -5.32334,-0.13051 -0.40854,-0.0109 -0.86659,-0.087 -1.01515,-0.16315 -0.24759,-0.11964 -0.28473,-0.11964 -0.28473,0.0653 0,0.48944 0.25997,0.88099 0.63137,0.94625 0.21046,0.0435 0.40853,0.14139 0.44567,0.2284 0.099,0.22841 -0.42091,0.67434 -0.94087,0.80486 -0.656129,0.17402 -8.690644,0.30454 -22.110388,0.3698 -6.536549,0.0435 -12.701711,0.0979 -13.716854,0.13052 l -1.819839,0.0653 -2.302647,2.1644 c -1.956015,1.849 -2.36455,2.17529 -2.810225,2.29493 -0.284736,0.0653 -0.58185,0.16315 -0.643749,0.20666 -0.07428,0.0435 -1.077048,0.26103 -2.228371,0.46768 -5.769007,1.04414 -9.049666,1.34868 -11.030437,1.03327 -0.396156,-0.0653 -1.324642,-0.28279 -2.042676,-0.47857 -0.730406,-0.20665 -1.535098,-0.40243 -1.795073,-0.43506 -0.532336,-0.0761 -2.921643,0.13052 -10.200986,0.87012 -11.364692,1.17465 -14.088256,1.5662 -14.744386,2.18616 -0.309498,0.28279 -0.371397,-0.29366 0.618992,5.64488 0.334256,2.03389 0.755168,4.77475 0.928487,6.0908 0.408534,3.02365 0.557093,3.75237 0.755168,3.81763 0.08667,0.0326 2.017914,-0.51119 4.283424,-1.20728 3.713953,-1.14203 7.749778,-2.36019 15.33862,-4.64424 11.773224,-3.52397 22.679862,-6.72164 22.778901,-6.66726 0.04953,0.0218 0.123799,0.5982 0.160938,1.27254 0.03714,0.67434 0.185698,1.79462 0.321874,2.47983 l 0.259979,1.23992 -0.978008,2.18616 c -2.636907,5.88415 -2.797845,6.91742 -1.250363,8.14645 1.869355,1.49007 5.360466,1.51183 6.586072,0.0544 0.160938,-0.17403 0.284737,-0.59821 0.359016,-1.14203 0.247597,-1.85987 2.513108,-6.81953 4.283424,-9.37549 0.309494,-0.44593 0.668509,-1.02238 0.804688,-1.2943 l 0.2476,-0.50031 0.210454,0.42418 c 0.123799,0.23928 0.433293,0.58733 0.693272,0.79398 1.980772,1.53358 7.155545,1.42481 9.247738,-0.1849 0.792308,-0.60908 1.460818,-0.34805 1.460818,0.57645 0,0.23928 0.04953,0.50032 0.111421,0.58733 0.136181,0.1849 0.2476,0.0109 0.557093,-0.82661 0.123799,-0.30454 0.383779,-0.77223 0.606616,-1.03326 0.346631,-0.41331 0.396153,-0.56558 0.433292,-1.33781 0.04953,-1.17465 0.06189,-1.18553 0.544714,-0.92449 0.222834,0.11964 0.532331,0.21752 0.693272,0.21752 0.346633,0 0.408532,0.11965 1.015142,2.36019 0.631376,2.30581 0.990391,3.33907 1.819839,5.18807 2.624526,5.96029 7.403142,11.30061 14.558688,16.31466 1.52272,1.05501 1.91888,1.26166 2.46359,1.26166 0.64375,0 0.99038,-0.14139 1.52272,-0.61995 0.619,-0.55471 1.06467,-1.26168 2.2779,-3.56748 0.55708,-1.07677 1.23798,-2.2623 1.49795,-2.6321 l 0.48282,-0.67434 -1.11419,-0.77221 c -6.17754,-4.28533 -10.151473,-8.73379 -12.020825,-13.4868 -0.594233,-1.50095 -1.349404,-4.23093 -1.374161,-4.99229 -0.02479,-0.67433 -0.01238,-0.69609 0.309493,-0.77222 0.618993,-0.15227 5.112873,-0.34805 6.907953,-0.30454 1.70841,0.0435 1.83221,0.0653 2.47597,0.3698 0.63137,0.29366 0.75517,0.31541 2.04267,0.30454 1.21322,0 1.597,-0.0544 3.55302,-0.5112 2.53787,-0.58732 2.41406,-0.57645 9.5077,-0.73959 4.82814,-0.10877 10.4486,-0.33717 11.67421,-0.48944 0.44566,-0.0544 0.58184,-0.11965 0.58184,-0.26104 0,-0.11964 0.14857,-0.23928 0.3714,-0.31541 0.21045,-0.0544 0.49519,-0.23929 0.65613,-0.40243 l 0.28473,-0.28279 5.80615,0.11964 c 3.20638,0.0761 6.20229,0.1849 6.6851,0.25016 0.97802,0.13051 1.06467,0.13051 3.09497,-0.0109 0.81707,-0.0544 4.13487,-0.10876 7.36601,-0.10876 3.23113,-0.0109 7.42789,-0.0435 9.30963,-0.087 l 3.4416,-0.0653 0.13617,-0.38068 c 0.16094,-0.43505 0.45806,-0.56557 1.88173,-0.83748 l 0.95325,-0.1849 v -1.02239 -1.02238 h -0.33425 c -0.59423,0 -1.2256,-0.20665 -1.7208,-0.5547 l -0.48282,-0.33716 -0.0743,-2.89313 c -0.0371,-1.59884 -0.11144,-2.99102 -0.16093,-3.08891 -0.1857,-0.35892 -1.2875,-0.51119 -2.2779,-0.30454 z m -81.360285,3.85026 c 0.371393,0.21753 -0.631373,0.28279 -5.509028,0.40243 -6.474655,0.14139 -19.745841,0.28279 -19.745841,0.19577 0,-0.0326 0.136179,-0.17402 0.309497,-0.31541 0.210455,-0.17403 0.519954,-0.27191 1.077047,-0.3263 1.151321,-0.11964 23.645487,-0.0761 23.868325,0.0435 z m 82.226875,0.50032 c 0.38377,0.0979 0.48283,0.1849 0.60662,0.53294 0.17332,0.52207 0.0248,0.98976 -0.39616,1.17466 -0.32188,0.14139 -1.68365,0.1849 -2.32741,0.0761 -0.47043,-0.087 -0.58185,-0.3698 -0.38377,-1.00063 0.13617,-0.46769 0.38377,-0.65259 1.05228,-0.79398 0.54471,-0.10876 0.94088,-0.10876 1.44844,0.0109 z m -83.51438,1.21816 c 0.148558,0.14139 0.01238,0.1849 -0.965629,0.31541 -0.680887,0.087 -1.163704,0.087 -1.782696,0 -0.495194,-0.0653 -4.506262,-0.16314 -9.520095,-0.2284 -4.766233,-0.0653 -8.752541,-0.13052 -8.851582,-0.16315 -0.09903,-0.0218 4.59292,-0.0326 10.423824,-0.0218 5.8309,0.0109 10.646658,0.0544 10.696178,0.0979 z m 44.55503,0.19577 c 0.6809,0.0544 1.46083,0.1414 1.73318,0.1849 0.47044,0.0653 0.4333,0.0761 -0.55708,0.20665 -0.58187,0.0653 -1.4732,0.18491 -1.98079,0.26104 -1.28749,0.1849 -3.57776,0.087 -4.02344,-0.17402 -0.18569,-0.10877 -0.56947,-0.22841 -0.8542,-0.26104 -0.4952,-0.0761 -0.4952,-0.0761 -0.19808,-0.19577 0.38378,-0.15227 4.18438,-0.16315 5.88041,-0.0218 z m 16.89849,0.5112 c 0,0.29366 -0.0495,0.58732 -0.0991,0.66346 -0.0866,0.10876 -1.26273,0.13052 -5.48427,0.10876 l -5.37284,-0.0326 -0.13618,-0.38067 c -0.12381,-0.33717 -0.19809,-0.38068 -0.61898,-0.41331 -0.77994,-0.0435 -1.32465,-0.14139 -1.22561,-0.21752 0.099,-0.0979 3.92439,-0.18491 9.01251,-0.21753 l 3.92442,-0.0218 z m -26.12146,-0.1849 0.30949,0.0761 -0.37138,0.15227 c -0.50759,0.19578 -4.09773,0.20665 -4.48151,0.0109 -0.16093,-0.0761 -0.28474,-0.18489 -0.28474,-0.23928 0,-0.13051 4.35771,-0.13051 4.82814,0 z m 43.837,3.55659 c 0.0991,0.0653 0.34663,0.14139 0.54472,0.16315 0.84183,0.0979 -2.0303,0.21753 -6.74701,0.28279 -7.26697,0.10876 -10.25051,-0.0217 -6.12802,-0.26104 0.68089,-0.0326 1.29988,-0.10876 1.36178,-0.15227 0.22283,-0.16314 1.15132,-0.1849 6.0166,-0.17402 3.42921,0.0109 4.82813,0.0435 4.95193,0.14139 z m -18.33453,0.11964 c 0.30949,0.0435 0.55708,0.11964 0.55708,0.1849 0,0.19578 -1.18845,0.25016 -5.6452,0.26104 -4.46912,0.0109 -6.67273,-0.0653 -6.67273,-0.21753 0,-0.0435 0.25998,-0.11964 0.59423,-0.16315 0.32188,-0.0435 0.69327,-0.11964 0.82944,-0.17402 0.27236,-0.0979 9.44583,-0.0109 10.33718,0.10876 z m -66.046438,4.88352 c 0.123793,1.72936 0.297111,2.87139 0.445672,3.03453 0.210457,0.22841 -0.148561,0.52207 -1.176086,0.97888 -1.26274,0.54382 -2.426449,0.72872 -4.221523,0.67434 -2.30265,-0.0761 -3.825372,-0.63083 -4.39484,-1.60971 -0.309499,-0.54382 -0.309499,-0.82661 0.01238,-1.49008 0.21046,-0.44593 0.235217,-0.65258 0.173318,-1.44656 l -0.07428,-0.9245 0.272357,0.30454 c 0.148555,0.17402 0.56947,0.50031 0.928486,0.7396 0.371393,0.23928 0.668509,0.51119 0.668509,0.61995 0.01238,0.34805 0.470438,1.09853 0.990386,1.58797 0.519957,0.50031 0.87897,0.64171 1.832219,0.77222 0.656132,0.0979 0.693271,-0.087 0.06189,-0.36979 -0.742788,-0.3263 -1.42368,-1.05502 -1.646515,-1.74024 -0.07428,-0.23928 -0.06189,-0.50031 0.06189,-0.83748 0.185697,-0.56558 0.482814,-0.89187 0.928489,-1.04414 0.359015,-0.13052 2.129332,-0.26103 3.862509,-0.28279 l 1.188461,-0.0218 z"
       id="path850"
       style="fill:#616163;stroke:none;stroke-width:0.0116038;fill-opacity:1" />
  </g>
</svg>
