<?xml version="1.0" encoding="UTF-8" standalone="no"?>
<svg
   xmlns:dc="http://purl.org/dc/elements/1.1/"
   xmlns:cc="http://creativecommons.org/ns#"
   xmlns:rdf="http://www.w3.org/1999/02/22-rdf-syntax-ns#"
   xmlns:svg="http://www.w3.org/2000/svg"
   xmlns="http://www.w3.org/2000/svg"
   xmlns:sodipodi="http://sodipodi.sourceforge.net/DTD/sodipodi-0.dtd"
   xmlns:inkscape="http://www.inkscape.org/namespaces/inkscape"
   width="78.431641mm"
   height="78.431641mm"
   viewBox="0 0 78.431641 78.431641"
   version="1.1"
   id="svg1119"
   inkscape:version="1.0.1 (3bc2e813f5, 2020-09-07)"
   sodipodi:docname="B4.svg">
  <style
     id="style1682"></style>
  <defs
     id="defs1113" />
  <sodipodi:namedview
     id="base"
     pagecolor="#ffffff"
     bordercolor="#666666"
     borderopacity="1.0"
     inkscape:pageopacity="0.0"
     inkscape:pageshadow="2"
     inkscape:zoom="0.35"
     inkscape:cx="168.21727"
     inkscape:cy="91.074431"
     inkscape:document-units="mm"
     inkscape:current-layer="layer1"
     inkscape:document-rotation="0"
     showgrid="false"
     fit-margin-top="0"
     fit-margin-left="0"
     fit-margin-right="0"
     fit-margin-bottom="0"
     inkscape:window-width="1647"
     inkscape:window-height="977"
     inkscape:window-x="2656"
     inkscape:window-y="256"
     inkscape:window-maximized="0" />
  <metadata
     id="metadata1116">
    <rdf:RDF>
      <cc:Work
         rdf:about="">
        <dc:format>image/svg+xml</dc:format>
        <dc:type
           rdf:resource="http://purl.org/dc/dcmitype/StillImage" />
        <dc:title></dc:title>
      </cc:Work>
    </rdf:RDF>
  </metadata>
  <g
     inkscape:label="Calque 1"
     inkscape:groupmode="layer"
     id="layer1"
     transform="translate(-61.325847,-124.06989)">
    <g
       id="g1096"
       transform="translate(48.358257,148.82518)">
      <g
         id="g1058"
         transform="translate(334.40118,-63.386149)">
        <path
           id="rect874-9"
           style="fill:#1a1a1a;fill-opacity:0.997275;stroke:none;stroke-width:0.499999;stroke-linecap:round"
           d="m -290.06769,54.4637 v 7.098273 c -3.68369,0.254117 -7.21932,0.709925 -10.21539,1.901693 v 30.000752 h 36.28202 V 63.463666 c -2.85046,-1.162029 -6.3609,-1.613353 -10.02264,-1.901693 V 54.4637 Z m 7.9251,15.325161 c 4.44708,3e-6 8.05843,3.609795 8.05843,8.056872 0,4.44708 -3.61135,8.058422 -8.05843,8.058425 -4.44708,-3e-6 -8.05687,-3.611345 -8.05687,-8.058425 0,-4.447077 3.60979,-8.056869 8.05687,-8.056872 z m 0,0.500229 c -4.17686,0 -7.55664,3.379785 -7.55664,7.556643 0,4.176861 3.37978,7.558712 7.55664,7.558712 4.17686,0 7.55871,-3.381851 7.55871,-7.558712 0,-4.176858 -3.38185,-7.556643 -7.55871,-7.556643 z" />
        <path
           style="color:#000000;font-style:normal;font-variant:normal;font-weight:normal;font-stretch:normal;font-size:medium;line-height:normal;font-family:sans-serif;font-variant-ligatures:normal;font-variant-position:normal;font-variant-caps:normal;font-variant-numeric:normal;font-variant-alternates:normal;font-variant-east-asian:normal;font-feature-settings:normal;font-variation-settings:normal;text-indent:0;text-align:start;text-decoration:none;text-decoration-line:none;text-decoration-style:solid;text-decoration-color:#000000;letter-spacing:normal;word-spacing:normal;text-transform:none;writing-mode:lr-tb;direction:ltr;text-orientation:mixed;dominant-baseline:auto;baseline-shift:baseline;text-anchor:start;white-space:normal;shape-padding:0;shape-margin:0;inline-size:0;clip-rule:nonzero;display:inline;overflow:visible;visibility:visible;isolation:auto;mix-blend-mode:normal;color-interpolation:sRGB;color-interpolation-filters:linearRGB;solid-color:#000000;solid-opacity:1;vector-effect:none;fill:#1a1a1a;fill-opacity:1;fill-rule:nonzero;stroke:none;stroke-width:0.5;stroke-linecap:round;stroke-linejoin:miter;stroke-miterlimit:4;stroke-dasharray:none;stroke-dashoffset:0;stroke-opacity:1;color-rendering:auto;image-rendering:auto;shape-rendering:auto;text-rendering:auto;enable-background:accumulate;stop-color:#000000"
           d="m -282.2168,38.630859 c -21.65501,0 -39.21679,17.559832 -39.21679,39.214844 0,21.655011 17.56178,39.216797 39.21679,39.216797 21.65501,0 39.21484,-17.561786 39.21485,-39.216797 0,-21.655012 -17.55983,-39.214844 -39.21485,-39.214844 z m 0,0.5 c 21.3848,0 38.71485,17.330052 38.71485,38.714844 -1e-5,21.384791 -17.33006,38.716797 -38.71485,38.716797 -21.38479,0 -38.71679,-17.332006 -38.71679,-38.716797 0,-21.384792 17.332,-38.714844 38.71679,-38.714844 z"
           id="path978" />
        <path
           style="color:#000000;font-style:normal;font-variant:normal;font-weight:normal;font-stretch:normal;font-size:medium;line-height:normal;font-family:sans-serif;font-variant-ligatures:normal;font-variant-position:normal;font-variant-caps:normal;font-variant-numeric:normal;font-variant-alternates:normal;font-variant-east-asian:normal;font-feature-settings:normal;font-variation-settings:normal;text-indent:0;text-align:start;text-decoration:none;text-decoration-line:none;text-decoration-style:solid;text-decoration-color:#000000;letter-spacing:normal;word-spacing:normal;text-transform:none;writing-mode:lr-tb;direction:ltr;text-orientation:mixed;dominant-baseline:auto;baseline-shift:baseline;text-anchor:start;white-space:normal;shape-padding:0;shape-margin:0;inline-size:0;clip-rule:nonzero;display:inline;overflow:visible;visibility:visible;isolation:auto;mix-blend-mode:normal;color-interpolation:sRGB;color-interpolation-filters:linearRGB;solid-color:#000000;solid-opacity:1;vector-effect:none;fill:#1a1a1a;fill-opacity:1;fill-rule:nonzero;stroke:none;stroke-width:0.5;stroke-linecap:round;stroke-linejoin:miter;stroke-miterlimit:4;stroke-dasharray:none;stroke-dashoffset:0;stroke-opacity:1;color-rendering:auto;image-rendering:auto;shape-rendering:auto;text-rendering:auto;enable-background:accumulate;stop-color:#000000"
           d="m -282.2168,50.267578 c -15.2284,0 -27.58008,12.349725 -27.58008,27.578125 10e-6,15.228399 12.35168,27.580077 27.58008,27.580077 15.2284,0 27.57813,-12.351678 27.57813,-27.580077 0,-15.2284 -12.34973,-27.578125 -27.57813,-27.578125 z m 0,0.5 c 14.95818,0 27.07813,12.119945 27.07813,27.078125 0,14.958179 -12.11995,27.080077 -27.07813,27.080077 -14.95818,0 -27.08007,-12.121898 -27.08008,-27.080077 0,-14.95818 12.1219,-27.078125 27.08008,-27.078125 z"
           id="path982" />
        <path
           style="color:#000000;font-style:normal;font-variant:normal;font-weight:normal;font-stretch:normal;font-size:medium;line-height:normal;font-family:sans-serif;font-variant-ligatures:normal;font-variant-position:normal;font-variant-caps:normal;font-variant-numeric:normal;font-variant-alternates:normal;font-variant-east-asian:normal;font-feature-settings:normal;font-variation-settings:normal;text-indent:0;text-align:start;text-decoration:none;text-decoration-line:none;text-decoration-style:solid;text-decoration-color:#000000;letter-spacing:normal;word-spacing:normal;text-transform:none;writing-mode:lr-tb;direction:ltr;text-orientation:mixed;dominant-baseline:auto;baseline-shift:baseline;text-anchor:start;white-space:normal;shape-padding:0;shape-margin:0;inline-size:0;clip-rule:nonzero;display:inline;overflow:visible;visibility:visible;isolation:auto;mix-blend-mode:normal;color-interpolation:sRGB;color-interpolation-filters:linearRGB;solid-color:#000000;solid-opacity:1;vector-effect:none;fill:#1a1a1a;fill-opacity:1;fill-rule:nonzero;stroke:none;stroke-width:0.499999;stroke-linecap:round;stroke-linejoin:miter;stroke-miterlimit:4;stroke-dasharray:none;stroke-dashoffset:0;stroke-opacity:1;color-rendering:auto;image-rendering:auto;shape-rendering:auto;text-rendering:auto;enable-background:accumulate;stop-color:#000000"
           d="m -282.2168,38.630859 c -21.65501,0 -39.21679,17.559832 -39.21679,39.214844 0,21.65501 17.56178,39.216797 39.21679,39.216797 21.65501,0 39.21484,-17.561787 39.21485,-39.216797 0,-21.655012 -17.55983,-39.214844 -39.21485,-39.214844 z m 0,0.5 c 21.3848,0 38.71485,17.330052 38.71485,38.714844 -1e-5,21.384791 -17.33006,38.716797 -38.71485,38.716797 -21.38479,0 -38.71679,-17.332006 -38.71679,-38.716797 0,-21.384792 17.332,-38.714844 38.71679,-38.714844 z"
           id="path953" />
        <path
           style="color:#000000;font-style:normal;font-variant:normal;font-weight:normal;font-stretch:normal;font-size:medium;line-height:normal;font-family:sans-serif;font-variant-ligatures:normal;font-variant-position:normal;font-variant-caps:normal;font-variant-numeric:normal;font-variant-alternates:normal;font-variant-east-asian:normal;font-feature-settings:normal;font-variation-settings:normal;text-indent:0;text-align:start;text-decoration:none;text-decoration-line:none;text-decoration-style:solid;text-decoration-color:#000000;letter-spacing:normal;word-spacing:normal;text-transform:none;writing-mode:lr-tb;direction:ltr;text-orientation:mixed;dominant-baseline:auto;baseline-shift:baseline;text-anchor:start;white-space:normal;shape-padding:0;shape-margin:0;inline-size:0;clip-rule:nonzero;display:inline;overflow:visible;visibility:visible;isolation:auto;mix-blend-mode:normal;color-interpolation:sRGB;color-interpolation-filters:linearRGB;solid-color:#000000;solid-opacity:1;vector-effect:none;fill:#1a1a1a;fill-opacity:1;fill-rule:nonzero;stroke:none;stroke-width:0.499999;stroke-linecap:round;stroke-linejoin:miter;stroke-miterlimit:4;stroke-dasharray:none;stroke-dashoffset:0;stroke-opacity:1;color-rendering:auto;image-rendering:auto;shape-rendering:auto;text-rendering:auto;enable-background:accumulate;stop-color:#000000"
           d="m -282.2168,50.267578 c -15.2284,0 -27.58008,12.349725 -27.58008,27.578125 10e-6,15.228399 12.35168,27.580077 27.58008,27.580077 15.2284,0 27.57813,-12.351678 27.57813,-27.580077 0,-15.2284 -12.34973,-27.578125 -27.57813,-27.578125 z m 0,0.5 c 14.95818,0 27.07813,12.119945 27.07813,27.078125 0,14.958179 -12.11995,27.080077 -27.07813,27.080077 -14.95818,0 -27.08007,-12.121898 -27.08008,-27.080077 0,-14.95818 12.1219,-27.078125 27.08008,-27.078125 z"
           id="path957" />
      </g>
    </g>
  </g>
</svg>
