<?xml version="1.0" encoding="UTF-8" standalone="no"?>
<svg
   xmlns:dc="http://purl.org/dc/elements/1.1/"
   xmlns:cc="http://creativecommons.org/ns#"
   xmlns:rdf="http://www.w3.org/1999/02/22-rdf-syntax-ns#"
   xmlns:svg="http://www.w3.org/2000/svg"
   xmlns="http://www.w3.org/2000/svg"
   xmlns:sodipodi="http://sodipodi.sourceforge.net/DTD/sodipodi-0.dtd"
   xmlns:inkscape="http://www.inkscape.org/namespaces/inkscape"
   width="158.42798mm"
   height="34.058281mm"
   viewBox="0 0 158.42798 34.058281"
   version="1.1"
   id="svg2021"
   inkscape:version="1.0.1 (3bc2e813f5, 2020-09-07)"
   sodipodi:docname="FASS_90.svg">
  <style
     id="style2584"></style>
  <defs
     id="defs2015" />
  <sodipodi:namedview
     id="base"
     pagecolor="#ffffff"
     bordercolor="#666666"
     borderopacity="1.0"
     inkscape:pageopacity="0.0"
     inkscape:pageshadow="2"
     inkscape:zoom="0.35"
     inkscape:cx="296.53433"
     inkscape:cy="244.3621"
     inkscape:document-units="mm"
     inkscape:current-layer="layer1"
     inkscape:document-rotation="0"
     showgrid="false"
     fit-margin-top="0"
     fit-margin-left="0"
     fit-margin-right="0"
     fit-margin-bottom="0"
     inkscape:window-width="1647"
     inkscape:window-height="977"
     inkscape:window-x="2734"
     inkscape:window-y="187"
     inkscape:window-maximized="0" />
  <metadata
     id="metadata2018">
    <rdf:RDF>
      <cc:Work
         rdf:about="">
        <dc:format>image/svg+xml</dc:format>
        <dc:type
           rdf:resource="http://purl.org/dc/dcmitype/StillImage" />
        <dc:title />
      </cc:Work>
    </rdf:RDF>
  </metadata>
  <g
     inkscape:label="Calque 1"
     inkscape:groupmode="layer"
     id="layer1"
     transform="translate(-27.375293,-83.512528)">
    <path
       style="fill:#616163;stroke-width:0.264583;fill-opacity:1"
       d="m 90.704671,117.05674 c -0.572659,-1.50621 -1.87425,-8.3007 -2.178989,-11.37468 -0.26887,-2.7121 -0.40027,-3.30761 -0.678789,-3.07645 -0.22348,0.18546 -0.345392,0.93544 -0.345392,2.12473 0,1.75483 -0.027,1.83426 -0.59531,1.75354 -0.426249,-0.0605 -0.619088,-0.29119 -0.679029,-0.81215 -0.0737,-0.6407 -0.577739,-1.08169 -0.577739,-0.50549 0,0.5448 -1.5415,0.83622 -4.423392,0.83622 -2.424059,0 -3.172838,-0.088 -3.53478,-0.41558 -0.42808,-0.38741 -0.639278,-0.12501 -3.11603,3.87165 -2.062948,3.3289 -2.628699,4.442 -2.531009,4.97964 0.277831,1.52901 -0.0647,1.51082 -4.748379,-0.25214 -3.65505,-1.37579 -4.400582,-1.74531 -4.400582,-2.18116 0,-0.30958 0.94956,-1.45994 2.3158,-2.80553 1.273691,-1.25443 2.712212,-2.87386 3.19673,-3.59873 0.766501,-1.14676 0.865722,-1.48375 0.763852,-2.59443 -0.0646,-0.70396 -0.35479,-1.59398 -0.647081,-1.98437 l -0.53001,-0.7079 -5.658501,0.01 c -6.309278,0.011 -7.88928,0.27197 -10.182709,1.68202 -0.71314,0.43845 -2.48724,1.47531 -3.94245,2.30413 -4.20564,2.39533 -9.22543,5.32365 -13.219131,7.71145 -3.69621,2.20992 -5.11293,2.71852 -6.5605,2.35521 -1.09594,-0.27507 -1.26781,-1.1301 -0.83996,-4.17888 0.40994,-2.92111 0.53363,-10.17136 0.2303,-13.499363 -0.17542,-1.92468 -0.15154,-2.0614 0.46842,-2.68135 0.64048,-0.64048 0.75891,-0.65624 6.05373,-0.80551 24.352512,-0.68654 22.585402,-0.58583 25.870691,-1.47443 1.655561,-0.4478 3.796609,-1.24717 4.7625,-1.77811 1.4982,-0.82353 2.083631,-0.98812 4.003741,-1.12563 1.733719,-0.12415 2.25488,-0.25198 2.2748,-0.55793 0.01421,-0.21828 0.044,-0.71675 0.0661,-1.10771 0.0339,-0.5984 0.176321,-0.72396 0.9002,-0.79375 0.718831,-0.0693 0.94434,-0.2646 1.374661,-1.19043 0.47403,-1.01987 0.578729,-1.09541 1.32292,-0.95441 0.444481,0.0842 1.129659,0.31472 1.522611,0.51222 0.392959,0.19749 0.91509,0.35908 1.16029,0.35908 0.90052,0 2.290778,1.94519 2.049558,2.86764 l -0.149571,0.57195 h 10.08503 10.085023 v -0.61089 c 0,-0.33599 0.167838,-0.84043 0.372975,-1.12097 0.366,-0.50054 0.38332,-0.50072 0.92604,-0.01 0.3042,0.27528 0.55306,0.77972 0.55306,1.12097 0,0.59107 0.0866,0.62045 1.83004,0.62045 1.02718,0 1.87012,-0.12025 1.9214,-0.2741 0.10156,-0.30469 49.67993,-0.40159 50.88373,-0.0995 0.45202,0.11345 0.84064,0.03 1.14562,-0.24601 0.48161,-0.43585 0.51858,-0.9592 0.1854,-2.62448 -0.26658,-1.332409 0.13876,-1.783049 1.60377,-1.783049 1.34586,0 1.77221,0.52564 1.68039,2.07177 -0.11167,1.88057 -0.0278,2.16158 0.64538,2.16158 0.7001,0 1.28177,0.54699 1.16616,1.09663 -0.05,0.23746 0.23898,0.38508 0.85541,0.43704 0.88914,0.0749 0.93207,0.12532 0.95827,1.12447 0.0262,1.00037 -0.009,1.04611 -0.79855,1.04809 -0.62105,0.002 -0.90186,0.16566 -1.13182,0.66146 l -0.30583,0.65939 h 3.42782 c 2.53619,0 3.62835,-0.10369 4.1987,-0.39863 0.69006,-0.35684 0.88039,-0.35481 1.81558,0.0194 0.80896,0.32368 1.60226,0.38343 3.51547,0.2648 1.35892,-0.0843 4.21823,-0.22049 6.35402,-0.30272 3.59861,-0.13856 3.90252,-0.11352 4.14613,0.34166 0.34684,0.64808 0.16547,2.47708 -0.2742,2.76514 -0.19077,0.12499 -2.13279,0.16486 -4.3156,0.0886 -3.49876,-0.12224 -6.46959,-0.16527 -10.25261,-0.14849 -0.61846,0.003 -2.6817,-0.0584 -4.58498,-0.13584 l -3.46051,-0.14083 -1.0745,1.0745 c -0.67794,0.67794 -1.13951,1.42107 -1.25066,2.01356 -0.16784,0.89465 -0.22239,0.93521 -1.15354,0.85782 -0.92135,-0.0766 -0.98208,-0.1381 -1.05949,-1.07342 -0.0504,-0.6091 -0.21825,-0.99219 -0.43471,-0.99219 -0.19393,0 -0.42113,-0.17859 -0.50489,-0.39687 -0.10041,-0.26166 -0.51449,-0.39688 -1.21538,-0.39688 -0.96487,0 -1.09884,0.0856 -1.45001,0.92604 -0.21281,0.50933 -0.55314,0.92605 -0.7563,0.92605 -0.20315,0 -0.59277,0.24686 -0.86583,0.54858 -0.44929,0.49646 -0.67314,0.53017 -2.35611,0.35484 -1.02281,-0.10656 -10.93396,-0.1929 -22.02478,-0.19187 -16.44444,0.002 -20.24379,0.0672 -20.59151,0.35575 -0.27594,0.22902 -0.48929,0.259241 -0.60466,0.0857 -0.26994,-0.40614 -5.4951,0.22257 -6.9903,0.841092 -0.906917,0.37517 -1.255577,0.66649 -1.255037,1.04865 0.0021,1.21145 1.101727,7.76693 1.756987,10.47047 0.41486,1.71167 0.60669,2.99878 0.46529,3.12182 -0.13235,0.11515 -2.324226,0.77283 -4.870835,1.46151 -2.546612,0.68868 -4.838483,1.31201 -5.093023,1.38517 -0.313431,0.0901 -0.539261,-0.068 -0.699648,-0.48989 z M 39.114622,105.31061 c 1.65596,-0.9626 4.46936,-2.58249 6.25199,-3.59976 l 3.24114,-1.849583 v -1.16274 c 0,-1.08918 -0.046,-1.16349 -0.7276,-1.17461 -0.40018,-0.007 -1.32292,-0.0638 -2.05052,-0.12725 -0.72761,-0.0635 -3.46321,-0.23813 -6.07913,-0.38815 l -4.756201,-0.27277 -1.25361,1.25992 -1.2536,1.25991 -0.18125,2.852373 c -0.16602,2.61291 -0.13905,2.88431 0.32127,3.23273 0.27639,0.2092 0.76766,0.38415 1.09173,0.38878 0.33002,0.005 0.77986,0.29938 1.02262,0.66987 0.23837,0.3638 0.64241,0.66146 0.89786,0.66146 0.25545,0 1.819341,-0.78758 3.475301,-1.75018 z m 44.433671,-0.1019 c 1.070678,0 1.366408,-0.10872 1.70611,-0.62717 0.446749,-0.68182 0.528108,-1.66603 0.248898,-3.01085 l -0.178519,-0.8599 h -2.185861 c -2.18445,0 -2.18595,4.7e-4 -2.33462,0.74381 -0.0818,0.4091 -0.0289,1.21278 0.117632,1.78594 0.14651,0.57317 0.33284,1.31692 0.414049,1.65278 0.0959,0.3966 0.28253,0.55891 0.5324,0.46302 0.2116,-0.0812 0.96757,-0.14763 1.679911,-0.14763 z m -3.77716,-1.05148 c -0.286121,-0.57831 -0.58452,-1.53081 -0.663102,-2.11667 -0.11906,-0.88771 -0.242559,-1.06519 -0.74118,-1.06519 -0.329078,0 -0.670589,0.18833 -0.758909,0.41852 -0.288251,0.75116 -0.16923,2.23692 0.24307,3.03421 0.340931,0.65929 0.56193,0.78061 1.422011,0.78061 h 1.018339 z"
       id="path869" />
  </g>
</svg>
