<?xml version="1.0" encoding="UTF-8" standalone="no"?>
<svg
   xmlns:dc="http://purl.org/dc/elements/1.1/"
   xmlns:cc="http://creativecommons.org/ns#"
   xmlns:rdf="http://www.w3.org/1999/02/22-rdf-syntax-ns#"
   xmlns:svg="http://www.w3.org/2000/svg"
   xmlns="http://www.w3.org/2000/svg"
   xmlns:sodipodi="http://sodipodi.sourceforge.net/DTD/sodipodi-0.dtd"
   xmlns:inkscape="http://www.inkscape.org/namespaces/inkscape"
   width="158.61943mm"
   height="43.394779mm"
   viewBox="0 0 158.61943 43.394779"
   version="1.1"
   id="svg849"
   inkscape:version="1.0.1 (3bc2e813f5, 2020-09-07)"
   sodipodi:docname="FASS_57.svg">
  <style
     id="style1412"></style>
  <defs
     id="defs843" />
  <sodipodi:namedview
     id="base"
     pagecolor="#ffffff"
     bordercolor="#666666"
     borderopacity="1.0"
     inkscape:pageopacity="0.0"
     inkscape:pageshadow="2"
     inkscape:zoom="0.35"
     inkscape:cx="308.32468"
     inkscape:cy="293.43446"
     inkscape:document-units="mm"
     inkscape:current-layer="layer1"
     inkscape:document-rotation="0"
     showgrid="false"
     fit-margin-top="0"
     fit-margin-left="0"
     fit-margin-right="0"
     fit-margin-bottom="0"
     inkscape:window-width="1647"
     inkscape:window-height="977"
     inkscape:window-x="2667"
     inkscape:window-y="235"
     inkscape:window-maximized="0" />
  <metadata
     id="metadata846">
    <rdf:RDF>
      <cc:Work
         rdf:about="">
        <dc:format>image/svg+xml</dc:format>
        <dc:type
           rdf:resource="http://purl.org/dc/dcmitype/StillImage" />
        <dc:title />
      </cc:Work>
    </rdf:RDF>
  </metadata>
  <g
     inkscape:label="Calque 1"
     inkscape:groupmode="layer"
     id="layer1"
     transform="translate(-24.25576,-70.5288)">
    <path
       style="fill:#616163;stroke-width:0.264583;fill-opacity:1"
       d="m 89.090485,113.76933 c 1.100378,-0.25623 9.391499,-2.97114 9.89258,-3.2393 0.510119,-0.27302 0.50083,-0.33105 -0.35215,-2.19857 -1.632741,-3.57472 -3.464012,-9.727799 -4.1144,-13.824409 -0.161732,-1.01864 -0.348491,-2.115211 -0.415031,-2.436811 -0.17137,-0.828279 0.839949,-1.375929 1.322419,-0.716109 0.526852,0.72051 1.161751,0.28232 1.256501,-0.867201 l 0.083,-1.00696 1.719789,-0.0285 c 4.684787,-0.0778 8.088187,-0.0323 9.970187,0.133319 0.17209,0.0151 0.38848,0.265651 0.48085,0.556691 0.0943,0.29697 0.40032,0.529169 0.69752,0.529169 0.48334,0 0.52397,-0.15456 0.46538,-1.770619 -0.0395,-1.08965 0.0459,-1.807321 0.2221,-1.866051 0.39685,-0.132279 0.63081,0.3227 0.65802,1.279611 0.034,1.194759 0.96563,1.73654 2.29914,1.33701 0.556,-0.166581 1.794,-0.302871 2.75114,-0.302871 1.45806,0 1.80223,-0.0885 2.12259,-0.545879 0.38209,-0.545521 0.39419,-0.54576 18.73427,-0.36486 11.83405,0.11673 18.41189,0.275659 18.52078,0.447489 0.22736,0.35878 0.75718,0.004 0.75718,-0.506709 0,-0.292741 0.13209,-0.35037 0.46302,-0.202041 0.83064,0.37229 2.97657,0.45749 2.97657,0.118181 0,-0.21136 0.26729,-0.25244 0.83347,-0.12808 0.7131,0.156619 0.80863,0.11832 0.66146,-0.265201 -0.0946,-0.24654 -0.17202,-0.498059 -0.17202,-0.55891 0,-0.0609 -0.48379,-0.110659 -1.07509,-0.110659 -1.05355,0 -1.07344,-0.0172 -0.99219,-0.85989 l 0.0829,-0.859901 h 11.64166 c 6.40292,0 11.7905,-0.0963 11.9724,-0.21405 0.40618,-0.26289 0.43228,-1.61535 0.0451,-2.33874 -0.27467,-0.51323 -0.46433,-0.52793 -4.96094,-0.38438 -14.35189,0.458141 -18.55889,0.48546 -18.69556,0.121401 -0.0742,-0.19758 -0.18711,-2.383291 -0.25098,-4.857141 -0.0639,-2.47386 -0.21273,-5.09323 -0.3308,-5.82084 C 158.159,70.77052 158.09733,70.68985 157.28678,70.6117 l -0.85989,-0.0829 v 2.34509 c 0,1.33996 0.12363,2.46873 0.28844,2.63355 0.2972,0.29719 0.20692,2.48342 -0.20446,4.95127 -0.18458,1.10731 -0.3132,1.31215 -0.87773,1.39788 -0.36381,0.0553 -0.92935,-0.0427 -1.25677,-0.21765 -0.44357,-0.23703 -0.74706,-0.24322 -1.19063,-0.0243 -0.91604,0.45214 -37.72933,0.75464 -39.64572,0.32577 -1.02562,-0.22952 -1.72488,-0.24582 -2.41163,-0.0562 -0.76752,0.21193 -0.99655,0.19057 -1.10938,-0.10347 -0.11481,-0.29919 -1.08603,-0.37052 -5.04528,-0.37052 -4.18192,0 -4.90308,-0.0584 -4.90308,-0.39688 0,-0.45475 -0.700677,-0.54384 -0.846097,-0.10758 -0.0693,0.20791 -0.5407,0.20218 -1.675688,-0.0204 -0.870001,-0.17059 -2.975491,-0.26887 -4.688121,-0.21882 -2.37989,0.0695 -3.108851,0.0123 -3.108851,-0.24421 0,-0.52958 -0.47611,-0.38986 -0.661458,0.19412 -0.21517,0.67793 -0.56084,0.67793 -0.738122,0 -0.174709,-0.66809 -0.717089,-0.69467 -0.717089,-0.0351 0,0.47057 -0.442939,0.50007 -9.32656,0.62125 -5.12961,0.07 -9.46979,0.0752 -9.644841,0.0116 -0.247009,-0.0897 -0.24757,-0.22883 -0.0021,-0.621249 0.245591,-0.39326 0.24352,-0.62133 -0.009,-1.02616 -0.21503,-0.34431 -0.270672,-1.041041 -0.16437,-2.05808 0.125,-1.195931 0.0716,-1.611511 -0.240432,-1.870451 -0.221298,-0.18366 -0.340728,-0.563859 -0.266398,-0.8481 0.25596,-0.97929 -0.146011,-1.8466 -0.85598,-1.8466 -0.610431,0 -0.656421,0.0918 -0.656421,1.30977 0,0.93668 -0.1231,1.378661 -0.432171,1.55163 -0.321008,0.179651 -0.389069,0.455241 -0.264578,1.071481 0.0922,0.456289 0.240628,1.18681 0.329909,1.623369 0.0981,0.47992 0.0528,0.79375 -0.11472,0.79375 -0.152369,0 -0.314709,0.32743 -0.36076,0.727611 -0.0811,0.70455 -0.1403,0.730079 -1.869659,0.805839 -1.036352,0.0454 -1.78593,0.196341 -1.78593,0.359631 0,0.193449 -2.08811,0.25697 -6.680732,0.203229 -4.046529,-0.0474 -7.515325,0.0411 -8.797395,0.224411 -2.1223,0.303399 -10.61545,0.58132 -17.932071,0.586779 l -3.90915,0.003 -0.26558,0.69852 c -0.17945,0.47199 -0.17394,1.36773 0.017,2.76213 0.15541,1.13499 0.3226,3.95313 0.37155,6.26252 0.0674,3.18097 0.19081,4.39579 0.50896,5.01102 0.764371,1.478129 1.773211,1.509498 3.825891,0.118969 0.829619,-0.562019 2.22279,-1.475419 3.09591,-2.029799 0.87313,-0.55437 1.90518,-1.222 2.29345,-1.48361 1.65646,-1.11609 5.8853,-3.21431 7.15141,-3.5483 1.15356,-0.3043 3.70127,-0.60468 8.63741,-1.01836 0.48639,-0.0408 0.965325,-0.20515 1.064306,-0.3653 0.1139,-0.1843 1.522251,-0.31263 3.836741,-0.3496 2.759789,-0.0441 3.689959,-0.14489 3.792059,-0.41095 0.0744,-0.19389 0.237381,-0.28943 0.36218,-0.21231 0.124791,0.0771 0.764881,0.15103 1.422421,0.16423 1.208418,0.0243 1.459249,0.48626 0.263988,0.48626 -0.355208,0 -0.64584,0.12922 -0.64584,0.28716 0,0.29758 2.487462,0.20197 4.154451,-0.15969 l 0.847169,-0.1838 0.0789,1.8141 c 0.0673,1.54797 -0.01111,1.94116 -0.534641,2.68021 -0.768868,1.08543 -0.668758,1.75332 0.279231,1.86288 0.854181,0.0987 1.789499,1.18613 1.789499,2.08048 0,0.35039 -0.558999,2.728348 -1.242208,5.28437 -1.151361,4.3074 -1.213562,4.69845 -0.850461,5.34653 0.376261,0.67157 0.493421,0.70221 2.963302,0.77496 3.029299,0.0892 2.73431,0.40594 3.767119,-4.0445 0.37148,-1.60072 0.926049,-3.77361 1.232378,-4.828642 l 0.556951,-1.918229 h 3.119231 c 1.71558,0 3.432249,-0.11901 3.814829,-0.264459 0.654841,-0.24897 0.690732,-0.22184 0.612539,0.463018 -0.0457,0.400111 0.036,0.787011 0.181531,0.859771 0.16098,0.0805 0.348969,-0.90175 0.4801,-2.508569 0.326562,-4.00159 0.51631,-3.87551 1.403479,0.93254 0.705361,3.82274 1.345502,6.40552 2.39073,9.64582 0.999871,3.09968 2.74955,7.5454 2.955653,7.50994 0.0981,-0.0169 0.416488,-0.0861 0.707538,-0.15391 z M 73.693965,96.66124 c -0.11122,-0.111229 -0.204851,-1.141479 -0.20806,-2.289449 -0.003,-1.18695 0.0937,-1.987721 0.22484,-1.85655 0.126868,0.12687 0.3868,0.17076 0.57762,0.0975 0.213429,-0.0819 0.76803,0.533579 1.44108,1.599299 0.601778,0.95284 1.400759,1.955791 1.77551,2.228781 l 0.681368,0.496349 -2.145059,-0.0369 c -1.17978,-0.0203 -2.236071,-0.12787 -2.347299,-0.2391 z m 4.590659,-0.448579 c -0.56614,-0.44533 -1.483609,-2.56272 -1.183929,-2.73235 1.104689,-0.6253 2.18957,-0.94181 2.424139,-0.707231 0.153321,0.153321 0.552609,0.27877 0.88731,0.27877 0.690731,0 0.723161,0.0852 0.31945,0.839551 -0.209069,0.39065 -0.209069,0.6202 0,0.829269 0.412951,0.41295 0.357401,0.992151 -0.148789,1.551491 -0.575191,0.63558 -1.443101,0.6131 -2.298181,-0.0595 z M 157.02225,73.82003 c 0.25466,-0.0665 0.67138,-0.0665 0.92604,0 0.25466,0.0666 0.0463,0.121 -0.46302,0.121 -0.50932,0 -0.71768,-0.0545 -0.46302,-0.121 z"
       id="path885"
       sodipodi:nodetypes="cssssssccssssssssssssssssssscsssssssscssscssssssssscsssssscssscsssssssssccccssssssssssssssssscssssssssscsssssssscccssssscsccssssssssscss" />
  </g>
</svg>
