<?xml version="1.0" encoding="UTF-8" standalone="no"?>
<svg
   xmlns:dc="http://purl.org/dc/elements/1.1/"
   xmlns:cc="http://creativecommons.org/ns#"
   xmlns:rdf="http://www.w3.org/1999/02/22-rdf-syntax-ns#"
   xmlns:svg="http://www.w3.org/2000/svg"
   xmlns="http://www.w3.org/2000/svg"
   xmlns:sodipodi="http://sodipodi.sourceforge.net/DTD/sodipodi-0.dtd"
   xmlns:inkscape="http://www.inkscape.org/namespaces/inkscape"
   width="158.60027mm"
   height="23.456532mm"
   viewBox="0 0 158.60027 23.456532"
   version="1.1"
   id="svg1435"
   inkscape:version="1.0.1 (3bc2e813f5, 2020-09-07)"
   sodipodi:docname="Mousqueton.svg">
  <style
     id="style1998"></style>
  <defs
     id="defs1429" />
  <sodipodi:namedview
     id="base"
     pagecolor="#ffffff"
     bordercolor="#666666"
     borderopacity="1.0"
     inkscape:pageopacity="0.0"
     inkscape:pageshadow="2"
     inkscape:zoom="0.35"
     inkscape:cx="294.00274"
     inkscape:cy="81.470165"
     inkscape:document-units="mm"
     inkscape:current-layer="layer1"
     inkscape:document-rotation="0"
     showgrid="false"
     fit-margin-top="0"
     fit-margin-left="0"
     fit-margin-right="0"
     fit-margin-bottom="0"
     inkscape:window-width="1647"
     inkscape:window-height="977"
     inkscape:window-x="2655"
     inkscape:window-y="243"
     inkscape:window-maximized="0" />
  <metadata
     id="metadata1432">
    <rdf:RDF>
      <cc:Work
         rdf:about="">
        <dc:format>image/svg+xml</dc:format>
        <dc:type
           rdf:resource="http://purl.org/dc/dcmitype/StillImage" />
        <dc:title />
      </cc:Work>
    </rdf:RDF>
  </metadata>
  <g
     inkscape:label="Calque 1"
     inkscape:groupmode="layer"
     id="layer1"
     transform="translate(-28.045108,-126.61102)">
    <path
       style="fill:#616163;stroke-width:0.264583;fill-opacity:1"
       d="m 28.548693,149.56189 c -0.406022,-0.44864 -0.461662,-1.24599 -0.491409,-7.04201 -0.03776,-7.35734 -0.116097,-7.06919 2.003669,-7.3702 0.611901,-0.0869 3.672391,-0.34191 6.80109,-0.56672 3.128697,-0.22481 9.319951,-0.70804 13.758331,-1.07385 5.374979,-0.443 8.787421,-0.60709 10.218759,-0.49138 1.64371,0.13287 2.359101,0.0797 3.042711,-0.22602 0.491561,-0.21986 1.756939,-0.71933 2.81197,-1.10994 1.055029,-0.39061 1.918229,-0.81886 1.918229,-0.95166 0,-0.34256 -0.11653,-0.31095 -1.191119,0.32307 -1.118341,0.65984 -2.0861,0.5415 -2.67657,-0.70734 -0.145529,-0.3078 -0.143129,-0.45146 -0.0801,-0.93404 0.180019,-0.39326 0.35579,-0.66427 0.615529,-0.90751 0.858901,-0.796 1.455272,-0.83307 2.330212,-0.14484 0.75429,0.59333 1.266669,0.3132 1.266669,-0.69252 0,-1.08827 1.830369,-1.48098 2.216211,-0.47549 0.123589,0.32207 1.090768,0.38873 5.779129,0.39833 3.09689,0.006 6.16648,0.1358 6.821329,0.28771 0.654841,0.1519 2.346092,0.40137 3.758332,0.55438 2.4008,0.26011 2.6723,0.23908 4.17684,-0.32358 1.374748,-0.51412 1.848609,-0.57008 3.253128,-0.38419 0.90419,0.11967 2.925221,0.22511 4.49117,0.23431 2.431957,0.0143 2.593467,-0.70608 2.658337,-0.34471 l 0.19088,1.06339 c 1.61541,0.0334 7.96262,-0.0761 9.26962,-0.14701 l 0.29273,-1.4237 c 0.12241,-0.59537 1.20927,0.0784 2.69605,0.0917 1.03893,0.009 15.73911,0.10633 32.66708,0.21554 30.16719,0.19462 30.78073,0.18853 30.91035,-0.30714 0.20422,-0.78095 1.41715,-0.43742 1.77166,0.50178 l 0.28236,0.74807 3.18605,0.0739 3.18605,0.0738 0.0807,0.83071 0.0807,0.8307 -3.99427,0.0974 c -3.17945,0.0776 -4.04419,0.17796 -4.23893,0.49221 -0.2101,0.33904 0.1553,0.40549 2.58743,0.47053 1.78538,0.0478 2.86586,-0.0256 2.92347,-0.19843 0.1382,-0.41458 0.57646,-0.32838 0.57646,0.11339 0,0.7282 -1.02414,0.93535 -4.62441,0.93535 -3.28263,0 -3.594,0.0409 -3.52312,0.46302 0.0603,0.35907 -0.13778,0.48103 -0.88224,0.54322 -0.84147,0.0703 -0.98115,-0.004 -1.13153,-0.60332 l -0.17155,-0.68352 -18.05076,0.17434 c -16.82975,0.16255 -18.08656,0.20639 -18.57993,0.64804 -0.29104,0.26054 -0.98865,0.55856 -1.55025,0.66228 -0.9448,0.1745 -1.00828,0.14823 -0.84962,-0.35165 0.15537,-0.48953 0.0774,-0.53066 -0.831,-0.43821 -0.55135,0.0561 -3.14559,0.22904 -5.76497,0.38427 -5.66288,0.33561 -21.46907,1.40159 -29.633336,1.99851 -3.201461,0.23406 -5.945939,0.52883 -6.09885,0.65503 -0.357589,0.29512 -6.468419,1.51118 -8.152701,1.62239 -1.30937,0.0865 -1.51206,-0.0404 -1.857068,-1.16249 -0.123301,-0.401 -0.425202,-0.4358 -2.59878,-0.29953 -1.35259,0.0848 -3.168142,0.22944 -4.034541,0.32142 l -1.575279,0.16724 -0.4542,1.27045 c -0.58683,1.64142 -0.799002,1.87666 -2.42207,2.68547 -2.574851,1.2831 -4.725162,0.74892 -4.792742,-1.19061 -0.0267,-0.76656 -0.0769,-0.80459 -0.867619,-0.65689 -0.461589,0.0862 -0.91286,0.0377 -1.002821,-0.10787 -0.10233,-0.16557 -0.679619,-0.0617 -1.541989,0.27735 -2.36883,0.93143 -3.114781,1.53017 -3.77979,3.03387 -0.358082,0.80968 -0.837311,1.46164 -1.146529,1.55979 -0.326861,0.10374 -1.239772,-0.14233 -2.372511,-0.63949 -1.012661,-0.44446 -2.15179,-0.80811 -2.5314,-0.80811 -0.37961,0 -3.33621,0.9576 -6.57024,2.12799 l -14.016877,5.15153 c -1.765845,0.65293 -3.407197,1.18715 -3.647449,1.18715 -0.240253,0 -0.642861,-0.22767 -0.894686,-0.50594 z m 42.960011,-9.90581 c 1.46222,-0.70629 2.260071,-1.73567 2.0363,-2.62724 -0.148961,-0.59352 -0.250849,-0.63359 -1.17933,-0.46381 -1.300681,0.23785 -1.55412,0.40428 -2.03671,1.33752 -0.369829,0.71516 -0.357671,0.80143 0.18406,1.30613 0.48133,0.44843 0.50505,0.5404 0.13938,0.5404 -0.242361,0 -0.63569,-0.29766 -0.874069,-0.66146 -0.399402,-0.60956 -0.399881,-0.71263 -0.006,-1.31361 0.235018,-0.35868 0.42731,-0.70321 0.42731,-0.76561 0,-0.22385 -2.253139,0.45277 -2.443351,0.73374 -0.370041,0.54663 -0.20026,1.74459 0.32117,2.26601 0.622602,0.6226 1.62682,0.51956 3.431342,-0.35207 z m -4.24163,-9.14537 c 0.15708,-0.21917 0.45847,-0.39182 0.485489,-1.08552 0.0319,-0.81841 -1.309399,-1.32741 -2.061599,-0.64667 -1.189371,1.55726 0.65568,2.6429 1.57611,1.73223 z"
       id="path853"
       sodipodi:nodetypes="cssssssssssccssscssssssccscsssccccccscsssssscsssssssscssscssssscssssccsccssssssssssssscsccc" />
  </g>
</svg>
